<mxfile host="Electron" agent="Mozilla/5.0 (X11; Linux x86_64) AppleWebKit/537.36 (KHTML, like Gecko) draw.io/24.7.17 Chrome/128.0.6613.36 Electron/32.0.1 Safari/537.36" version="24.7.17">
  <diagram name="Page-1" id="48CmRc7VjEjxRa2cv3tP">
    <mxGraphModel dx="1971" dy="937" grid="1" gridSize="10" guides="1" tooltips="1" connect="1" arrows="1" fold="1" page="0" pageScale="1" pageWidth="850" pageHeight="1100" math="0" shadow="0">
      <root>
        <mxCell id="0" />
        <mxCell id="1" parent="0" />
        <mxCell id="pnjolQQbKE6Q57wbxVzo-17" style="edgeStyle=orthogonalEdgeStyle;rounded=0;orthogonalLoop=1;jettySize=auto;html=1;exitX=0.5;exitY=1;exitDx=0;exitDy=0;entryX=0.5;entryY=0;entryDx=0;entryDy=0;fontSize=18;strokeColor=#FFFFFF;" parent="1" source="pnjolQQbKE6Q57wbxVzo-1" target="pnjolQQbKE6Q57wbxVzo-3" edge="1">
          <mxGeometry relative="1" as="geometry" />
        </mxCell>
        <mxCell id="pnjolQQbKE6Q57wbxVzo-18" style="edgeStyle=orthogonalEdgeStyle;rounded=0;orthogonalLoop=1;jettySize=auto;html=1;exitX=0.5;exitY=1;exitDx=0;exitDy=0;entryX=0.5;entryY=0;entryDx=0;entryDy=0;fontSize=18;strokeColor=#FFFFFF;" parent="1" source="pnjolQQbKE6Q57wbxVzo-1" target="pnjolQQbKE6Q57wbxVzo-2" edge="1">
          <mxGeometry relative="1" as="geometry" />
        </mxCell>
        <mxCell id="pnjolQQbKE6Q57wbxVzo-1" value="litan" style="rounded=0;whiteSpace=wrap;html=1;fontSize=18;strokeColor=#FFCC99;fontColor=#FFCC99;" parent="1" vertex="1">
          <mxGeometry x="500" y="560" width="160" height="40" as="geometry" />
        </mxCell>
        <mxCell id="sMS2GJLe8gfdLIentciP-3" style="edgeStyle=orthogonalEdgeStyle;rounded=0;orthogonalLoop=1;jettySize=auto;html=1;exitX=0.5;exitY=1;exitDx=0;exitDy=0;entryX=0.5;entryY=0;entryDx=0;entryDy=0;" edge="1" parent="1" source="pnjolQQbKE6Q57wbxVzo-2" target="pnjolQQbKE6Q57wbxVzo-5">
          <mxGeometry relative="1" as="geometry" />
        </mxCell>
        <mxCell id="pnjolQQbKE6Q57wbxVzo-2" value="litan_compiler" style="rounded=0;whiteSpace=wrap;html=1;fontSize=18;strokeColor=#99FF99;fontColor=#99FF99;" parent="1" vertex="1">
          <mxGeometry x="600" y="640" width="160" height="40" as="geometry" />
        </mxCell>
        <mxCell id="pnjolQQbKE6Q57wbxVzo-15" style="edgeStyle=orthogonalEdgeStyle;rounded=0;orthogonalLoop=1;jettySize=auto;html=1;exitX=0.5;exitY=1;exitDx=0;exitDy=0;entryX=0.5;entryY=0;entryDx=0;entryDy=0;fontSize=18;strokeColor=#FFFFFF;fontColor=#99FF99;" parent="1" source="pnjolQQbKE6Q57wbxVzo-3" target="pnjolQQbKE6Q57wbxVzo-4" edge="1">
          <mxGeometry relative="1" as="geometry" />
        </mxCell>
        <mxCell id="sMS2GJLe8gfdLIentciP-12" style="edgeStyle=orthogonalEdgeStyle;rounded=0;orthogonalLoop=1;jettySize=auto;html=1;exitX=0.5;exitY=1;exitDx=0;exitDy=0;entryX=0.5;entryY=0;entryDx=0;entryDy=0;" edge="1" parent="1" source="pnjolQQbKE6Q57wbxVzo-3" target="sMS2GJLe8gfdLIentciP-1">
          <mxGeometry relative="1" as="geometry" />
        </mxCell>
        <mxCell id="pnjolQQbKE6Q57wbxVzo-3" value="litan_vm" style="rounded=0;whiteSpace=wrap;html=1;fontSize=18;strokeColor=#99FF99;fontColor=#99FF99;" parent="1" vertex="1">
          <mxGeometry x="400" y="640" width="160" height="40" as="geometry" />
        </mxCell>
        <mxCell id="sMS2GJLe8gfdLIentciP-4" style="edgeStyle=orthogonalEdgeStyle;rounded=0;orthogonalLoop=1;jettySize=auto;html=1;exitX=0.5;exitY=1;exitDx=0;exitDy=0;entryX=0.5;entryY=0;entryDx=0;entryDy=0;" edge="1" parent="1" source="pnjolQQbKE6Q57wbxVzo-4" target="pnjolQQbKE6Q57wbxVzo-7">
          <mxGeometry relative="1" as="geometry" />
        </mxCell>
        <mxCell id="pnjolQQbKE6Q57wbxVzo-4" value="litan_core" style="rounded=0;whiteSpace=wrap;html=1;fontSize=18;strokeColor=#99FF99;fontColor=#99FF99;" parent="1" vertex="1">
          <mxGeometry x="400" y="720" width="160" height="40" as="geometry" />
        </mxCell>
        <mxCell id="pnjolQQbKE6Q57wbxVzo-14" style="edgeStyle=orthogonalEdgeStyle;rounded=0;orthogonalLoop=1;jettySize=auto;html=1;exitX=0.5;exitY=1;exitDx=0;exitDy=0;entryX=0.5;entryY=0;entryDx=0;entryDy=0;fontSize=18;strokeColor=#FFFFFF;" parent="1" source="pnjolQQbKE6Q57wbxVzo-5" target="pnjolQQbKE6Q57wbxVzo-7" edge="1">
          <mxGeometry relative="1" as="geometry" />
        </mxCell>
        <mxCell id="sMS2GJLe8gfdLIentciP-2" style="edgeStyle=orthogonalEdgeStyle;rounded=0;orthogonalLoop=1;jettySize=auto;html=1;exitX=1;exitY=0.5;exitDx=0;exitDy=0;entryX=0;entryY=0.5;entryDx=0;entryDy=0;" edge="1" parent="1" source="pnjolQQbKE6Q57wbxVzo-5" target="pnjolQQbKE6Q57wbxVzo-21">
          <mxGeometry relative="1" as="geometry" />
        </mxCell>
        <mxCell id="pnjolQQbKE6Q57wbxVzo-5" value="litan_stdlib" style="rounded=0;whiteSpace=wrap;html=1;fontSize=18;strokeColor=#99FF99;fontColor=#99FF99;" parent="1" vertex="1">
          <mxGeometry x="600" y="720" width="160" height="40" as="geometry" />
        </mxCell>
        <mxCell id="pnjolQQbKE6Q57wbxVzo-9" style="edgeStyle=orthogonalEdgeStyle;rounded=0;orthogonalLoop=1;jettySize=auto;html=1;exitX=0.5;exitY=1;exitDx=0;exitDy=0;entryX=0.5;entryY=0;entryDx=0;entryDy=0;fontSize=18;strokeColor=#FFFFFF;fontColor=#9999FF;" parent="1" source="pnjolQQbKE6Q57wbxVzo-6" target="pnjolQQbKE6Q57wbxVzo-8" edge="1">
          <mxGeometry relative="1" as="geometry" />
        </mxCell>
        <mxCell id="pnjolQQbKE6Q57wbxVzo-6" value="litan_config_c" style="rounded=0;whiteSpace=wrap;html=1;fontSize=18;strokeColor=#9999FF;fontColor=#9999FF;" parent="1" vertex="1">
          <mxGeometry y="800" width="160" height="40" as="geometry" />
        </mxCell>
        <mxCell id="pnjolQQbKE6Q57wbxVzo-10" style="edgeStyle=orthogonalEdgeStyle;rounded=0;orthogonalLoop=1;jettySize=auto;html=1;exitX=0.5;exitY=1;exitDx=0;exitDy=0;fontSize=18;entryX=0.5;entryY=0;entryDx=0;entryDy=0;strokeColor=#FFFFFF;fontColor=#9999FF;" parent="1" source="pnjolQQbKE6Q57wbxVzo-7" target="pnjolQQbKE6Q57wbxVzo-8" edge="1">
          <mxGeometry relative="1" as="geometry">
            <mxPoint x="260" y="880" as="targetPoint" />
          </mxGeometry>
        </mxCell>
        <mxCell id="pnjolQQbKE6Q57wbxVzo-7" value="litan_config_cxx" style="rounded=0;whiteSpace=wrap;html=1;fontSize=18;strokeColor=#9999FF;fontColor=#9999FF;" parent="1" vertex="1">
          <mxGeometry x="500" y="800" width="160" height="40" as="geometry" />
        </mxCell>
        <mxCell id="pnjolQQbKE6Q57wbxVzo-8" value="litan_config" style="rounded=0;whiteSpace=wrap;html=1;fontSize=18;strokeColor=#9999FF;fontColor=#9999FF;" parent="1" vertex="1">
          <mxGeometry x="320" y="880" width="160" height="40" as="geometry" />
        </mxCell>
        <mxCell id="sMS2GJLe8gfdLIentciP-10" style="edgeStyle=orthogonalEdgeStyle;rounded=0;orthogonalLoop=1;jettySize=auto;html=1;exitX=0.5;exitY=1;exitDx=0;exitDy=0;entryX=0.5;entryY=0;entryDx=0;entryDy=0;" edge="1" parent="1" source="pnjolQQbKE6Q57wbxVzo-19" target="sMS2GJLe8gfdLIentciP-6">
          <mxGeometry relative="1" as="geometry" />
        </mxCell>
        <mxCell id="pnjolQQbKE6Q57wbxVzo-19" value="test_plugin" style="rounded=0;whiteSpace=wrap;html=1;fillColor=none;fontSize=18;fontColor=#99FFFF;strokeColor=#99FFFF;" parent="1" vertex="1">
          <mxGeometry y="640" width="160" height="40" as="geometry" />
        </mxCell>
        <mxCell id="pnjolQQbKE6Q57wbxVzo-22" style="edgeStyle=orthogonalEdgeStyle;rounded=0;orthogonalLoop=1;jettySize=auto;html=1;exitX=0.5;exitY=1;exitDx=0;exitDy=0;strokeColor=#FFFFFF;entryX=0.5;entryY=0;entryDx=0;entryDy=0;" parent="1" source="pnjolQQbKE6Q57wbxVzo-21" target="pnjolQQbKE6Q57wbxVzo-7" edge="1">
          <mxGeometry relative="1" as="geometry">
            <mxPoint x="360" y="800" as="targetPoint" />
          </mxGeometry>
        </mxCell>
        <mxCell id="pnjolQQbKE6Q57wbxVzo-21" value="tool_embed_file" style="rounded=0;whiteSpace=wrap;html=1;fontSize=18;strokeColor=#FFCC99;fontColor=#FFCC99;" parent="1" vertex="1">
          <mxGeometry x="800" y="720" width="160" height="40" as="geometry" />
        </mxCell>
        <mxCell id="pnjolQQbKE6Q57wbxVzo-24" value="" style="rounded=0;whiteSpace=wrap;html=1;fillColor=none;" parent="1" vertex="1">
          <mxGeometry x="-200" y="320" width="200" height="260" as="geometry" />
        </mxCell>
        <mxCell id="pnjolQQbKE6Q57wbxVzo-27" value="Shared library" style="rounded=0;whiteSpace=wrap;html=1;fillColor=none;fontSize=18;fontColor=#99FFFF;strokeColor=#99FFFF;" parent="1" vertex="1">
          <mxGeometry x="-180" y="400" width="160" height="40" as="geometry" />
        </mxCell>
        <mxCell id="pnjolQQbKE6Q57wbxVzo-28" value="Executable" style="rounded=0;whiteSpace=wrap;html=1;fontSize=18;strokeColor=#FFCC99;fontColor=#FFCC99;" parent="1" vertex="1">
          <mxGeometry x="-180" y="340" width="160" height="40" as="geometry" />
        </mxCell>
        <mxCell id="pnjolQQbKE6Q57wbxVzo-29" value="Static Library" style="rounded=0;whiteSpace=wrap;html=1;fontSize=18;strokeColor=#99FF99;fontColor=#99FF99;" parent="1" vertex="1">
          <mxGeometry x="-180" y="460" width="160" height="40" as="geometry" />
        </mxCell>
        <mxCell id="pnjolQQbKE6Q57wbxVzo-30" value="Interface" style="rounded=0;whiteSpace=wrap;html=1;fontSize=18;strokeColor=#9999FF;fontColor=#9999FF;" parent="1" vertex="1">
          <mxGeometry x="-180" y="520" width="160" height="40" as="geometry" />
        </mxCell>
        <mxCell id="sMS2GJLe8gfdLIentciP-7" style="edgeStyle=orthogonalEdgeStyle;rounded=0;orthogonalLoop=1;jettySize=auto;html=1;exitX=0.5;exitY=1;exitDx=0;exitDy=0;" edge="1" parent="1" source="sMS2GJLe8gfdLIentciP-1" target="pnjolQQbKE6Q57wbxVzo-7">
          <mxGeometry relative="1" as="geometry" />
        </mxCell>
        <mxCell id="sMS2GJLe8gfdLIentciP-14" style="edgeStyle=orthogonalEdgeStyle;rounded=0;orthogonalLoop=1;jettySize=auto;html=1;exitX=0.5;exitY=1;exitDx=0;exitDy=0;entryX=0.5;entryY=0;entryDx=0;entryDy=0;" edge="1" parent="1" source="sMS2GJLe8gfdLIentciP-1" target="sMS2GJLe8gfdLIentciP-13">
          <mxGeometry relative="1" as="geometry" />
        </mxCell>
        <mxCell id="sMS2GJLe8gfdLIentciP-1" value="litan_native_cxx" style="rounded=0;whiteSpace=wrap;html=1;fontSize=18;strokeColor=#9999FF;fontColor=#9999FF;" vertex="1" parent="1">
          <mxGeometry x="200" y="720" width="160" height="40" as="geometry" />
        </mxCell>
        <mxCell id="sMS2GJLe8gfdLIentciP-11" style="edgeStyle=orthogonalEdgeStyle;rounded=0;orthogonalLoop=1;jettySize=auto;html=1;exitX=0.5;exitY=1;exitDx=0;exitDy=0;" edge="1" parent="1" source="sMS2GJLe8gfdLIentciP-6" target="pnjolQQbKE6Q57wbxVzo-6">
          <mxGeometry relative="1" as="geometry" />
        </mxCell>
        <mxCell id="sMS2GJLe8gfdLIentciP-15" style="edgeStyle=orthogonalEdgeStyle;rounded=0;orthogonalLoop=1;jettySize=auto;html=1;exitX=0.5;exitY=1;exitDx=0;exitDy=0;entryX=0.25;entryY=0;entryDx=0;entryDy=0;" edge="1" parent="1" source="sMS2GJLe8gfdLIentciP-6" target="sMS2GJLe8gfdLIentciP-13">
          <mxGeometry relative="1" as="geometry" />
        </mxCell>
        <mxCell id="sMS2GJLe8gfdLIentciP-6" value="litan_native_c" style="rounded=0;whiteSpace=wrap;html=1;fontSize=18;strokeColor=#9999FF;fontColor=#9999FF;" vertex="1" parent="1">
          <mxGeometry y="720" width="160" height="40" as="geometry" />
        </mxCell>
        <mxCell id="sMS2GJLe8gfdLIentciP-16" style="edgeStyle=orthogonalEdgeStyle;rounded=0;orthogonalLoop=1;jettySize=auto;html=1;exitX=0.5;exitY=1;exitDx=0;exitDy=0;entryX=0.5;entryY=0;entryDx=0;entryDy=0;" edge="1" parent="1" source="sMS2GJLe8gfdLIentciP-13" target="pnjolQQbKE6Q57wbxVzo-8">
          <mxGeometry relative="1" as="geometry" />
        </mxCell>
        <mxCell id="sMS2GJLe8gfdLIentciP-13" value="litan_native" style="rounded=0;whiteSpace=wrap;html=1;fontSize=18;strokeColor=#9999FF;fontColor=#9999FF;" vertex="1" parent="1">
          <mxGeometry x="200" y="800" width="160" height="40" as="geometry" />
        </mxCell>
      </root>
    </mxGraphModel>
  </diagram>
</mxfile>
